# xmcd CD database file
#
# Track frame offsets:
#	182
#	51105
#	94822
#	135227
#	164875
#	195410
#	237342
#	278355
#	303150
#
# Disc length: 4448 seconds
#
# Revision: 0
# Processed by: cddbd v1.5.1PL2 Copyright (c) Steve Scherf et al.
# Submitted via: CDex 1.51
#
DISCID=6f115e09
DTITLE=Massimo Greco Quartet - Cattivik
DYEAR=1900
DGENRE=Blues
TTITLE0=Minchia blues
TTITLE1=Dove
TTITLE2=E sali
TTITLE3=Quasi
TTITLE4=Cattivik
TTITLE5=Sudore
TTITLE6=Ansie
TTITLE7='mbare
TTITLE8=Ma picca
EXTD=
EXTT0=
EXTT1=
EXTT2=
EXTT3=
EXTT4=
EXTT5=
EXTT6=
EXTT7=
EXTT8=
PLAYORDER=
